<svg preserveAspectRatio="none" width="100%" height="100%" overflow="visible" style="display: block;" viewBox="0 0 300 53" fill="none" xmlns="http://www.w3.org/2000/svg">
<path id="Vector" d="M231.817 0C232.202 0.150865 233.124 0.626671 233.089 1.70594C233.054 2.5647 232.459 3.80643 230.672 5.75607L220.396 16.8853L216.998 7.72891C216.718 6.71928 215.62 1.38099 223.012 0.0115986H200.043C200.428 0.162464 202.518 0.87037 204.293 5.61681L211.919 26.0764L198.116 41.1977C196.014 43.4955 193.013 44.9925 189.942 44.9925L166.401 45.0274L170.815 28.6759H182.842C187.607 28.6759 184.255 35.0007 182.422 38.633C190.643 32.8189 193.212 19.2295 193.212 19.2295C192.873 19.7749 190.047 21.9102 184.5 21.9102H172.636L176.688 6.89335H187.42C192.114 6.89335 194.893 8.34398 194.952 13.1717L198.501 0.0231972H137.301C138.002 0.255297 140.314 0.9516 140.197 4.14297C140.174 4.68841 139.952 6.27829 139.765 6.89335L132.864 32.4708L118.349 0.0115986H79.4753C80.0942 0.243698 81.9509 0.87037 81.8458 3.58594C81.8224 4.13137 81.5655 6.18545 81.3787 6.88175L73.987 34.3044C72.142 41.8476 68.0316 45.4335 62.3098 45.4335C57.6155 45.4335 54.2641 43.4143 54.4393 38.6678C54.4977 37.1128 54.883 35.1631 55.4319 32.9118L62.9287 4.90891C63.9329 0.939999 68.2535 0.162464 69.0475 0.0115986H5.89701L0 21.8754C5.16134 11.3613 11.1284 6.89335 16.605 6.89335H20.295L9.68043 46.2227C8.48935 50.8067 5.46495 51.6654 4.51909 51.8279H25.3863C24.6857 51.677 23.0042 50.737 23.0976 48.0215C23.1209 47.3948 23.2494 46.6985 23.4362 45.9209L33.9691 6.90497H44.6071C47.6548 6.90497 49.8969 9.74819 49.1028 12.6727L44.3969 30.1266C43.2992 34.3276 42.8672 36.8923 42.7854 39.1552C42.4701 47.7894 48.6357 53 59.7524 53C70.8692 53 82.2662 48.416 85.4774 35.4184L92.2502 10.282C92.799 8.26276 94.6324 6.87015 96.7343 6.87015H98.6143C101.662 6.87015 103.869 9.74819 103.098 12.6727C100.564 22.2352 98.0071 31.2639 95.4731 41.1049C95.1345 42.2074 92.7406 50.4121 83.6441 51.8395H109.065C108.365 51.6886 105.562 50.9111 105.679 47.9518C105.691 47.4876 105.994 45.6424 106.169 45.0158L113.596 17.4539L122.261 35.0239L125.706 42.3002C125.706 42.3002 129.279 49.681 120.673 51.8395H139.45L150.648 10.2936C151.197 8.27435 152.984 6.88175 155.085 6.88175H156.93C159.967 6.88175 162.162 9.73658 161.391 12.661L152.703 45.0506C151.337 50.4237 148.021 51.6886 147.075 51.8511H205.286C205.052 51.7699 204.282 51.4565 204.328 50.296C204.363 49.3676 204.971 47.8126 207.248 45.3175L217.278 34.2695L220.863 44.0293C221.074 44.7024 222.568 50.4237 214.885 51.8511H254.809C254.576 51.7699 253.805 51.4565 253.852 50.296C253.887 49.3676 254.494 47.8126 256.771 45.3175L266.802 34.2695L270.363 43.9597C270.363 43.9597 272.582 50.3308 264.408 51.8511H287.225C286.688 51.7002 284.761 50.7602 282.764 45.3175L275.291 25.0204L292.912 5.65163C297.232 0.905184 299.533 0.208882 300 0.0464122H281.316C281.702 0.197277 282.624 0.673083 282.589 1.75235C282.554 2.61112 281.959 3.85286 280.172 5.8025L269.896 16.9317L266.486 7.76373C266.206 6.74249 265.12 1.4158 272.5 0.0464122H231.793L231.817 0ZM248.632 40.0952C245.269 43.2634 242.279 45.6656 237.877 44.8069C233.545 43.9597 231.898 41.337 231.349 40.1069L231.116 39.4686L225.779 24.9623L238.146 11.3729C239.5 9.88744 241.112 8.63411 242.957 7.84497C244.276 7.28793 245.888 6.84694 247.709 6.84694C252.812 6.84694 254.809 8.90102 256.362 12.4638L261.43 26.0532L248.632 40.0836V40.0952Z" fill="var(--fill-0, white)"/>
</svg>
