<svg width="120" height="74" viewBox="0 0 120 74" fill="none" xmlns="http://www.w3.org/2000/svg">
<g clip-path="url(#clip0_224_119)">
<rect x="101" y="37" width="19" height="19" fill="black"/>
<rect y="40" width="19" height="19" fill="black"/>
<rect x="15" width="14" height="4" fill="black"/>
<rect x="70" width="14" height="4" fill="black"/>
<rect x="59" y="32" width="14" height="4" fill="black"/>
<rect x="43" y="7" width="11" height="5" fill="black"/>
<rect x="43" y="17" width="11" height="5" fill="black"/>
<rect x="13" y="14" width="10" height="4" fill="black"/>
<rect x="8" y="31" width="14" height="4" fill="black"/>
<rect x="18" y="18" width="7" height="4" fill="black"/>
<rect x="23" y="22" width="6" height="6" fill="black"/>
<rect x="29" y="4" width="4" height="6" fill="black"/>
<rect x="25" y="10" width="4" height="4" fill="black"/>
<rect x="54" y="12" width="5" height="5" fill="black"/>
<rect x="74" y="4" width="6" height="6" fill="black"/>
<rect x="68" y="18" width="6" height="6" fill="black"/>
<rect x="70" y="10" width="8" height="8" fill="black"/>
<rect x="62" y="24" width="8" height="8" fill="black"/>
<rect x="4" y="27" width="4" height="4" fill="black"/>
<rect x="13" y="22" width="4" height="4" fill="black"/>
<rect x="4" y="18" width="9" height="4" fill="black"/>
<rect y="22" width="4" height="5" fill="black"/>
<rect x="21" y="27" width="4" height="4" fill="black"/>
<rect x="12" y="4" width="6" height="4" fill="black"/>
<rect x="9" y="8" width="6" height="6" fill="black"/>
<rect x="38" y="7" width="5" height="29" fill="black"/>
<rect x="86" y="7" width="5" height="26" fill="black"/>
<rect x="100" width="5" height="26" fill="black"/>
<rect x="100" y="28" width="5" height="14" transform="rotate(90 100 28)" fill="black"/>
<rect x="114" y="21" width="5" height="14" transform="rotate(90 114 21)" fill="black"/>
<rect x="5" y="43" width="3" height="3" fill="white"/>
<rect x="8" y="53" width="3" height="3" fill="white"/>
<rect x="5" y="51" width="9" height="2" fill="white"/>
<rect x="11" y="43" width="3" height="3" fill="white"/>
<rect x="3" y="46" width="13" height="5" fill="white"/>
<rect x="25" y="40" width="23" height="4" fill="black"/>
<rect x="22" y="68" width="12" height="4" fill="black"/>
<rect x="34" y="44" width="5" height="5" fill="black"/>
<rect x="28" y="56" width="6" height="6" fill="black"/>
<rect x="30" y="49" width="7" height="7" fill="black"/>
<rect x="25" y="62" width="6" height="6" fill="black"/>
<rect x="25" y="44" width="3" height="3" fill="black"/>
<rect x="45" y="44" width="3" height="3" fill="black"/>
<rect x="52" y="40" width="22" height="34" fill="black"/>
<rect x="60" y="43" width="11" height="5" fill="white"/>
<rect x="60" y="66" width="11" height="5" fill="white"/>
<rect x="60" y="54" width="6" height="6" fill="white"/>
<rect x="60" y="48" width="18" height="5" transform="rotate(90 60 48)" fill="white"/>
<rect x="83" y="48" width="20" height="5" transform="rotate(90 83 48)" fill="black"/>
<rect x="98" y="48" width="20" height="5" transform="rotate(90 98 48)" fill="black"/>
<rect x="83" y="43" width="10" height="5" fill="black"/>
<rect x="83" y="53" width="10" height="5" fill="black"/>
<rect x="108" y="41" width="8" height="2" fill="white"/>
<rect x="108" y="44" width="8" height="2" fill="white"/>
<rect x="107" y="41" width="2" height="11" fill="white"/>
<rect x="114" y="41" width="2" height="11" fill="white"/>
<rect x="112" y="47" width="4" height="2" fill="white"/>
<rect x="105" y="47" width="4" height="2" fill="white"/>
<rect x="113" y="50" width="3" height="2" fill="white"/>
<rect x="106" y="50" width="2" height="2" fill="white"/>
<rect x="113" y="49" width="2" height="2" transform="rotate(90 113 49)" fill="white"/>
<rect x="106" y="49" width="2" height="2" transform="rotate(90 106 49)" fill="white"/>
</g>
<defs>
<clipPath id="clip0_224_119">
<rect width="120" height="74" fill="white"/>
</clipPath>
</defs>
</svg>
